<?xml version="1.0" standalone="no"?>
<!DOCTYPE svg PUBLIC "-//W3C//DTD SVG 20010904//EN"
        "http://www.w3.org/TR/2001/REC-SVG-20010904/DTD/svg10.dtd">
<svg version="1.0" xmlns="http://www.w3.org/2000/svg"
     width="486.000000pt" height="478.000000pt" viewBox="0 0 486.000000 478.000000"
     preserveAspectRatio="xMidYMid meet">

    <g transform="translate(0.000000,478.000000) scale(0.100000,-0.100000)"
       fill="#000000" stroke="none">
        <path d="M433 4476 c-63 -30 -107 -87 -123 -159 -8 -37 -10 -593 -8 -1977 l3
-1925 22 -40 c25 -47 64 -85 113 -111 34 -18 103 -19 2025 -19 l1990 0 41 22
c52 28 111 95 124 142 6 23 10 724 10 1971 l0 1935 -24 50 c-13 28 -36 62 -52
77 -66 62 73 58 -2093 58 l-1976 0 -52 -24z m4047 -111 c17 -16 35 -45 41 -65
7 -23 9 -664 7 -1945 l-3 -1910 -23 -36 c-12 -20 -36 -42 -53 -49 -25 -11
-424 -13 -1989 -13 -1827 0 -1961 1 -1985 17 -14 9 -35 31 -45 49 -20 31 -20
67 -20 1960 0 2130 -5 1966 63 2007 32 20 62 20 2004 18 l1972 -3 31 -30z"/>
        <path d="M670 4170 c-19 -10 -44 -33 -55 -52 -20 -33 -20 -51 -20 -1743 0
-1698 0 -1710 20 -1745 12 -21 39 -44 65 -58 l45 -22 1755 2 c1735 3 1755 3
1789 23 18 11 42 36 52 55 18 33 19 96 19 1740 0 1603 -1 1707 -18 1740 -9 19
-32 45 -51 57 l-34 23 -1766 0 c-1703 -1 -1767 -2 -1801 -20z m848 -452 l-3
-413 -427 -3 -428 -2 0 389 0 389 31 26 31 26 399 0 399 0 -2 -412z m920 0
l-3 -413 -427 -3 -428 -2 0 415 0 415 430 0 430 0 -2 -412z m912 -1 l0 -412
-425 -3 -425 -2 0 415 0 415 425 0 425 0 0 -413z m886 398 c42 -29 44 -52 42
-440 l-3 -370 -427 -3 -428 -2 0 415 0 415 398 0 c332 0 401 -2 418 -15z
m-2716 -1290 l0 -415 -430 0 -430 0 0 415 0 415 430 0 430 0 0 -415z m920 0
l0 -415 -430 0 -430 0 0 415 0 415 430 0 430 0 0 -415z m910 0 l0 -415 -425 0
-425 0 0 415 0 415 425 0 425 0 0 -415z m930 0 l0 -415 -430 0 -430 0 0 415 0
415 430 0 430 0 0 -415z m-1840 -901 l0 -414 -430 0 -430 0 0 415 0 415 423 2
c232 2 425 2 430 0 4 -2 7 -190 7 -418z m-920 1 l0 -415 -430 0 -430 0 0 415
0 415 430 0 430 0 0 -415z m1830 0 l0 -415 -425 0 -425 0 0 415 0 415 425 0
425 0 0 -415z m930 0 l0 -415 -430 0 -430 0 0 415 0 415 430 0 430 0 0 -415z
m-2760 -895 l0 -410 -405 0 -406 0 -24 25 -25 24 0 386 0 385 430 0 430 0 0
-410z m920 0 l0 -410 -430 0 -430 0 0 410 0 410 430 0 430 0 0 -410z m910 0
l0 -410 -425 0 -425 0 0 410 0 410 425 0 425 0 0 -410z m930 31 l0 -379 -26
-31 -26 -31 -404 0 -404 0 0 410 0 410 430 0 430 0 0 -379z"/>
        <path d="M940 3906 l0 -33 92 -8 92 -7 -57 -53 c-51 -49 -56 -57 -50 -85 5
-28 9 -31 37 -29 81 5 106 -11 106 -70 0 -47 -24 -71 -71 -71 -40 0 -52 7 -68
38 -9 18 -20 22 -57 22 -43 0 -44 -1 -38 -27 17 -76 84 -118 175 -111 114 8
177 86 150 186 -13 47 -60 92 -97 92 -13 0 -24 4 -24 8 0 4 25 32 55 62 44 44
55 61 55 87 l0 33 -150 0 -150 0 0 -34z"/>
        <path d="M1840 3020 l0 -40 111 0 c127 0 122 6 69 -100 -31 -62 -130 -280
-130 -286 0 -2 20 -4 45 -4 l46 0 33 73 c121 261 149 326 154 360 l5 37 -167
0 -166 0 0 -40z"/>
        <path d="M2875 2168 c-89 -31 -132 -145 -91 -243 29 -69 134 -97 186 -50 27
25 34 14 17 -26 -20 -49 -50 -71 -102 -76 -45 -6 -45 -6 -45 -44 l0 -39 48 6
c26 3 67 16 92 28 36 18 51 33 75 81 26 52 30 69 30 144 0 113 -28 175 -95
209 -48 24 -69 26 -115 10z m85 -86 c31 -25 40 -105 15 -132 -22 -25 -77 -26
-96 -3 -8 9 -14 38 -14 65 0 40 5 53 24 69 29 24 43 24 71 1z"/>
        <path d="M3720 1267 c0 -1 -7 -57 -15 -122 -8 -66 -15 -121 -15 -122 0 -1 17
-4 38 -8 25 -4 47 -1 69 10 60 30 115 -5 117 -74 1 -50 -25 -81 -68 -81 -37 0
-49 7 -65 38 -9 18 -20 22 -57 22 -43 0 -44 -1 -38 -27 19 -77 83 -118 175
-111 104 8 154 67 146 174 -5 72 -18 95 -70 125 -32 18 -49 21 -94 16 l-55 -6
5 36 c4 19 8 38 11 40 2 2 48 7 101 10 l96 6 -3 36 -3 36 -137 3 c-76 1 -138
1 -138 -1z"/>
    </g>
</svg>
